<svg width="19" height="18" viewBox="0 0 19 18" fill="none" xmlns="http://www.w3.org/2000/svg">
<circle cx="9.58488" cy="9.03556" r="8.62784" fill="#3DBCA1"/>
<path d="M5.7794 8.52722C5.49861 8.24643 5.04338 8.24643 4.7626 8.52722C4.48181 8.808 4.48181 9.26323 4.7626 9.54402L5.7794 8.52722ZM8.50644 12.2711L7.99804 12.7795C8.13838 12.9198 8.33049 12.9959 8.52887 12.9897C8.72725 12.9835 8.91425 12.8956 9.04556 12.7468L8.50644 12.2711ZM14.438 6.63537C14.7007 6.33762 14.6723 5.88326 14.3745 5.62054C14.0768 5.35782 13.6224 5.38622 13.3597 5.68397L14.438 6.63537ZM4.7626 9.54402L7.99804 12.7795L9.01484 11.7627L5.7794 8.52722L4.7626 9.54402ZM9.04556 12.7468L14.438 6.63537L13.3597 5.68397L7.96731 11.7954L9.04556 12.7468Z" fill="white"/>
</svg>
